<svg xmlns="http://www.w3.org/2000/svg" xml:space="preserve" viewBox="0 0 170 170"><path fill="none" d="M-359.69 266.26v-100h100v100z" vector-effect="non-scaling-stroke"/><path fill="#fff" stroke="#fff" d="M85.78.48C39.532.48 2.04 37.972 2.04 84.22s37.492 83.74 83.74 83.74 83.74-37.492 83.74-83.74S132.028.48 85.78.48zm38.4 120.78a5.22 5.22 0 0 1-7.18 1.73c-19.66-12-44.41-14.73-73.56-8.07a5.222 5.222 0 1 1-2.29-10.19c31.9-7.29 59.26-4.15 81.33 9.34a5.22 5.22 0 0 1 1.73 7.19zm10.25-22.8a6.53 6.53 0 0 1-9 2.15c-22.46-13.83-56.77-17.88-83.39-9.76a6.53 6.53 0 1 1-3.8-12.49c30.41-9.23 68.22-4.76 94.07 11.12a6.53 6.53 0 0 1 2.15 9zm.91-23.73c-26.99-16-71.56-17.52-97.29-9.7a7.836 7.836 0 0 1-4.54-15c29.58-9 78.75-7.24 109.83 11.2a7.84 7.84 0 0 1-8 13.48z" vector-effect="non-scaling-stroke"/></svg>